<svg width="21" height="21" viewBox="0 0 21 21" fill="none" xmlns="http://www.w3.org/2000/svg">
<path d="M6.12492 0.0834961H14.8749C18.2083 0.0834961 20.9166 2.79183 20.9166 6.12516V14.8752C20.9166 16.4775 20.2801 18.0142 19.147 19.1473C18.014 20.2803 16.4773 20.9168 14.8749 20.9168H6.12492C2.79159 20.9168 0.083252 18.2085 0.083252 14.8752V6.12516C0.083252 4.52281 0.719783 2.98609 1.85282 1.85306C2.98585 0.720027 4.52257 0.0834961 6.12492 0.0834961ZM5.91659 2.16683C4.92202 2.16683 3.9682 2.56192 3.26494 3.26518C2.56167 3.96844 2.16659 4.92227 2.16659 5.91683V15.0835C2.16659 17.1564 3.84367 18.8335 5.91659 18.8335H15.0833C16.0778 18.8335 17.0316 18.4384 17.7349 17.7351C18.4382 17.0319 18.8333 16.0781 18.8333 15.0835V5.91683C18.8333 3.84391 17.1562 2.16683 15.0833 2.16683H5.91659ZM15.9687 3.72933C16.314 3.72933 16.6452 3.86651 16.8894 4.1107C17.1336 4.35489 17.2708 4.68608 17.2708 5.03141C17.2708 5.37675 17.1336 5.70794 16.8894 5.95213C16.6452 6.19631 16.314 6.3335 15.9687 6.3335C15.6233 6.3335 15.2921 6.19631 15.048 5.95213C14.8038 5.70794 14.6666 5.37675 14.6666 5.03141C14.6666 4.68608 14.8038 4.35489 15.048 4.1107C15.2921 3.86651 15.6233 3.72933 15.9687 3.72933ZM10.4999 5.29183C11.8813 5.29183 13.206 5.84056 14.1828 6.81732C15.1595 7.79407 15.7083 9.11883 15.7083 10.5002C15.7083 11.8815 15.1595 13.2063 14.1828 14.183C13.206 15.1598 11.8813 15.7085 10.4999 15.7085C9.11858 15.7085 7.79382 15.1598 6.81707 14.183C5.84032 13.2063 5.29159 11.8815 5.29159 10.5002C5.29159 9.11883 5.84032 7.79407 6.81707 6.81732C7.79382 5.84056 9.11858 5.29183 10.4999 5.29183ZM10.4999 7.37516C9.67112 7.37516 8.87626 7.7044 8.29021 8.29045C7.70416 8.87651 7.37492 9.67136 7.37492 10.5002C7.37492 11.329 7.70416 12.1238 8.29021 12.7099C8.87626 13.2959 9.67112 13.6252 10.4999 13.6252C11.3287 13.6252 12.1236 13.2959 12.7096 12.7099C13.2957 12.1238 13.6249 11.329 13.6249 10.5002C13.6249 9.67136 13.2957 8.87651 12.7096 8.29045C12.1236 7.7044 11.3287 7.37516 10.4999 7.37516Z" fill="white"/>
</svg>
