<svg width="25" height="25" viewBox="0 0 25 25" fill="none" xmlns="http://www.w3.org/2000/svg">
<path d="M16.0714 8.20247H16.5714V7.70247V5.39173C16.5714 3.34946 14.6741 1.81074 12.5 1.81074C10.3259 1.81074 8.42857 3.34946 8.42857 5.39173V7.70247V8.20247H8.92857H16.0714ZM6.25 8.20247H6.75V7.70247V5.39173C6.75 2.75474 9.25003 0.5 12.5 0.5C15.75 0.5 18.25 2.75474 18.25 5.39173V7.70247V8.20247H18.75H22.3214C23.596 8.20247 24.5 9.08039 24.5 10.0132V20.0264C24.5 22.2349 22.3962 24.1479 19.6429 24.1479H5.35714C2.60382 24.1479 0.5 22.2349 0.5 20.0264V10.0132C0.5 9.08039 1.40405 8.20247 2.67857 8.20247H6.25ZM5.75 11.1686C5.75 12.1518 6.64283 12.8239 7.58929 12.8239C8.53574 12.8239 9.42857 12.1518 9.42857 11.1686C9.42857 10.1854 8.53574 9.5132 7.58929 9.5132C6.64283 9.5132 5.75 10.1854 5.75 11.1686ZM17.4107 12.8239C18.3572 12.8239 19.25 12.1518 19.25 11.1686C19.25 10.1854 18.3572 9.5132 17.4107 9.5132C16.4643 9.5132 15.5714 10.1854 15.5714 11.1686C15.5714 12.1518 16.4643 12.8239 17.4107 12.8239Z" fill="#1B1426" stroke="#F9AA01"/>
</svg>
