<svg width="40" height="40" viewBox="0 0 40 40" fill="none" xmlns="http://www.w3.org/2000/svg">
<rect width="40" height="40" rx="8" fill="#F9AA01"/>
<path d="M16.1252 10.084H24.8752C28.2085 10.084 30.9168 12.7923 30.9168 16.1257V24.8757C30.9168 26.478 30.2803 28.0147 29.1473 29.1478C28.0142 30.2808 26.4775 30.9173 24.8752 30.9173H16.1252C12.7918 30.9173 10.0835 28.209 10.0835 24.8757V16.1257C10.0835 14.5233 10.72 12.9866 11.8531 11.8535C12.9861 10.7205 14.5228 10.084 16.1252 10.084ZM15.9168 12.1673C14.9223 12.1673 13.9684 12.5624 13.2652 13.2657C12.5619 13.9689 12.1668 14.9228 12.1668 15.9173V25.084C12.1668 27.1569 13.8439 28.834 15.9168 28.834H25.0835C26.0781 28.834 27.0319 28.4389 27.7351 27.7356C28.4384 27.0324 28.8335 26.0785 28.8335 25.084V15.9173C28.8335 13.8444 27.1564 12.1673 25.0835 12.1673H15.9168ZM25.9689 13.7298C26.3142 13.7298 26.6454 13.867 26.8896 14.1112C27.1338 14.3554 27.271 14.6866 27.271 15.0319C27.271 15.3772 27.1338 15.7084 26.8896 15.9526C26.6454 16.1968 26.3142 16.334 25.9689 16.334C25.6236 16.334 25.2924 16.1968 25.0482 15.9526C24.804 15.7084 24.6668 15.3772 24.6668 15.0319C24.6668 14.6866 24.804 14.3554 25.0482 14.1112C25.2924 13.867 25.6236 13.7298 25.9689 13.7298ZM20.5002 15.2923C21.8815 15.2923 23.2063 15.8411 24.183 16.8178C25.1598 17.7946 25.7085 19.1193 25.7085 20.5007C25.7085 21.882 25.1598 23.2067 24.183 24.1835C23.2063 25.1603 21.8815 25.709 20.5002 25.709C19.1188 25.709 17.7941 25.1603 16.8173 24.1835C15.8406 23.2067 15.2918 21.882 15.2918 20.5007C15.2918 19.1193 15.8406 17.7946 16.8173 16.8178C17.7941 15.8411 19.1188 15.2923 20.5002 15.2923ZM20.5002 17.3757C19.6714 17.3757 18.8765 17.7049 18.2905 18.2909C17.7044 18.877 17.3752 19.6719 17.3752 20.5007C17.3752 21.3295 17.7044 22.1243 18.2905 22.7104C18.8765 23.2964 19.6714 23.6257 20.5002 23.6257C21.329 23.6257 22.1238 23.2964 22.7099 22.7104C23.2959 22.1243 23.6252 21.3295 23.6252 20.5007C23.6252 19.6719 23.2959 18.877 22.7099 18.2909C22.1238 17.7049 21.329 17.3757 20.5002 17.3757Z" fill="black"/>
</svg>
