<svg width="23" height="20" viewBox="0 0 23 20" fill="none" xmlns="http://www.w3.org/2000/svg">
<path d="M20.875 0.625H2.125C1.7106 0.625 1.31317 0.822544 1.02015 1.17417C0.72712 1.52581 0.5625 2.00272 0.5625 2.5V17.5C0.5625 17.9973 0.72712 18.4742 1.02015 18.8258C1.31317 19.1775 1.7106 19.375 2.125 19.375H20.875C21.2894 19.375 21.6868 19.1775 21.9799 18.8258C22.2729 18.4742 22.4375 17.9973 22.4375 17.5V2.5C22.4375 2.00272 22.2729 1.52581 21.9799 1.17417C21.6868 0.822544 21.2894 0.625 20.875 0.625ZM19.1562 2.5L11.5 8.85625L3.84375 2.5H19.1562ZM2.125 17.5V3.35312L11.0547 10.7687C11.1855 10.8776 11.3408 10.936 11.5 10.936C11.6592 10.936 11.8145 10.8776 11.9453 10.7687L20.875 3.35312V17.5H2.125Z" fill="white"/>
</svg>
