<svg width="25" height="25" viewBox="0 0 25 25" fill="none" xmlns="http://www.w3.org/2000/svg">
<path d="M17.9584 15.6202L17.7003 15.9689L18.0091 16.2736L24.1911 22.3721L24.1912 22.3723C24.6029 22.7781 24.6029 23.4347 24.1912 23.8406C23.7755 24.2503 23.0971 24.2503 22.6813 23.8407C22.6813 23.8406 22.6812 23.8406 22.6812 23.8406L16.4994 17.7422L16.1984 17.4452L15.8555 17.6928C14.259 18.8457 12.2905 19.5235 10.1567 19.5235C4.81546 19.5235 0.5 15.2594 0.5 10.0117C0.5 4.76411 4.81546 0.5 10.1567 0.5C15.498 0.5 19.8135 4.76411 19.8135 10.0117C19.8135 12.1093 19.1232 14.0467 17.9584 15.6202ZM10.1567 17.4429C14.3081 17.4429 17.6883 14.1212 17.6883 10.0117C17.6883 5.90224 14.3081 2.58053 10.1567 2.58053C6.00538 2.58053 2.62515 5.90224 2.62515 10.0117C2.62515 14.1212 6.00538 17.4429 10.1567 17.4429Z" fill="#1B1426" stroke="#F9AA01"/>
</svg>
