<svg width="19" height="19" viewBox="0 0 19 19" fill="white" xmlns="http://www.w3.org/2000/svg">
<path d="M17.7812 18.875C15.5417 18.875 13.3587 18.3757 11.2323 17.3771C9.10521 16.3792 7.22153 15.0597 5.58125 13.4187C3.94028 11.7785 2.62083 9.89479 1.62292 7.76771C0.624306 5.64132 0.125 3.45833 0.125 1.21875C0.125 0.90625 0.229167 0.645833 0.4375 0.4375C0.645833 0.229167 0.90625 0.125 1.21875 0.125H5.4375C5.68056 0.125 5.89757 0.203125 6.08854 0.359375C6.27951 0.515625 6.39236 0.715278 6.42708 0.958333L7.10417 4.60417C7.13889 4.84722 7.13472 5.0684 7.09167 5.26771C7.04792 5.46771 6.94792 5.64583 6.79167 5.80208L4.29167 8.35417C5.02083 9.60417 5.93229 10.776 7.02604 11.8698C8.11979 12.9635 9.32639 13.9097 10.6458 14.7083L13.0937 12.2604C13.25 12.1042 13.4542 11.9868 13.7062 11.9083C13.9576 11.8306 14.2049 11.809 14.4479 11.8438L18.0417 12.5729C18.2847 12.625 18.4844 12.742 18.6406 12.924C18.7969 13.1066 18.875 13.3194 18.875 13.5625V17.7812C18.875 18.0938 18.7708 18.3542 18.5625 18.5625C18.3542 18.7708 18.0938 18.875 17.7812 18.875Z" fill="white"/>
</svg>
