<svg width="40" height="41" viewBox="0 0 40 41" fill="none" xmlns="http://www.w3.org/2000/svg">
<rect width="40" height="40.0771" rx="8" fill="#F9AA01"/>
<path d="M21.9708 7.5242C21.1573 6.82527 19.8362 6.82527 19.0227 7.5242L8.61011 16.4705C7.79663 17.1694 7.79663 18.3045 8.61011 19.0034C9.4236 19.7023 10.7447 19.7023 11.5582 19.0034L18.4175 13.1044V30.2589C18.4175 31.2486 19.3481 32.0482 20.5 32.0482C21.6519 32.0482 22.5825 31.2486 22.5825 30.2589V13.1044L29.4418 18.9978C30.2553 19.6967 31.5764 19.6967 32.3899 18.9978C33.2034 18.2989 33.2034 17.1638 32.3899 16.4649L21.9773 7.5186L21.9708 7.5242Z" fill="#1B1426"/>
</svg>
