<svg width="16" height="19" viewBox="0 0 16 19" fill="none" xmlns="http://www.w3.org/2000/svg">
<path d="M5.03546 0.656836L4.7886 1.1875H1.49717C0.890311 1.1875 0.400024 1.71816 0.400024 2.375C0.400024 3.03184 0.890311 3.5625 1.49717 3.5625H14.6629C15.2698 3.5625 15.76 3.03184 15.76 2.375C15.76 1.71816 15.2698 1.1875 14.6629 1.1875H11.3715L11.1246 0.656836C10.9395 0.252344 10.5589 0 10.144 0H6.01603C5.60117 0 5.2206 0.252344 5.03546 0.656836V0.656836ZM14.6629 4.75H1.49717L2.22403 17.3301C2.27888 18.2689 2.99888 19 3.86631 19H12.2938C13.1612 19 13.8812 18.2689 13.936 17.3301L14.6629 4.75Z" fill="#F9AA01"/>
</svg>
